<svg xmlns="http://www.w3.org/2000/svg" xmlns:xlink="http://www.w3.org/1999/xlink" width="128" height="128" version="1.1" viewBox="0 0 128 128"><title>hstspreload-icon-wide</title><desc>Created with Sketch.</desc><defs><path id="path-1" d="M16,55.9999189 C16,47.1634077 23.1653489,40 31.9978495,40 L26.9957363,40 C35.8335684,40 50.1686508,40 59.0049913,40 L95.9929204,40 C104.833386,40 112,47.1640977 112,55.9999189 L112,112.000081 C112,120.836592 104.843254,128 95.9993079,128 L32.0006921,128 C23.1637539,128 16,120.835902 16,112.000081 L16,55.9999189 Z"/><mask id="mask-2" width="96" height="88" x="0" y="0" fill="#fff" maskContentUnits="userSpaceOnUse" maskUnits="objectBoundingBox"><use xlink:href="#path-1"/></mask></defs><g id="Page-1" fill="none" fill-rule="evenodd" stroke="none" stroke-width="1"><g id="wide"><use id="Rectangle-1" fill="#1AC222" stroke="#18911E" stroke-width="8" mask="url(#mask-2)" xlink:href="#path-1"/><rect id="Rectangle-2" width="48" height="8" x="48" y="72" fill="#FFF" fill-opacity=".9"/><rect id="Rectangle-2-Copy" width="8" height="8" x="32" y="72" fill="#FFF"/><path id="Oval-3" stroke="#18911E" stroke-width="16" d="M88,44 C88,44 88,38.8582343 88,32 C88,18.745166 77.254834,8 64,8 C50.745166,8 40,18.745166 40,32 L40,44"/><path id="Oval-3-Copy" stroke="#1AC222" stroke-width="8" d="M88,44 C88,44 88,38.8582343 88,32 C88,18.745166 77.254834,8 64,8 C50.745166,8 40,18.745166 40,32 L40,44"/><rect id="Rectangle-2-Copy-9" width="48" height="8" x="48" y="56" fill="#FFF" fill-opacity=".9"/><rect id="Rectangle-2-Copy-8" width="8" height="8" x="32" y="56" fill="#FFF"/><rect id="Rectangle-2-Copy-3" width="48" height="8" x="48" y="88" fill="#FFF" fill-opacity=".9"/><rect id="Rectangle-2-Copy-2" width="8" height="8" x="32" y="88" fill="#FFF"/><rect id="Rectangle-2-Copy-5" width="48" height="8" x="48" y="104" fill="#FFF" fill-opacity=".9"/><rect id="Rectangle-2-Copy-4" width="8" height="8" x="32" y="104" fill="#FFF"/></g></g></svg>